<mxfile host="app.diagrams.net" modified="2024-05-10T01:34:17.924Z" agent="Mozilla/5.0 (Windows NT 10.0; Win64; x64; rv:125.0) Gecko/20100101 Firefox/125.0" etag="tw2HkDDGApN9PxeXJTYl" version="24.3.1" type="device">
  <diagram name="Page-1" id="Z5_mxyFWhPoOwISwIRji">
    <mxGraphModel dx="1313" dy="698" grid="1" gridSize="10" guides="1" tooltips="1" connect="1" arrows="1" fold="1" page="1" pageScale="1" pageWidth="1169" pageHeight="827" math="0" shadow="0">
      <root>
        <mxCell id="0" />
        <mxCell id="1" parent="0" />
        <mxCell id="0ZQwHmmF4wAy4fdGetRu-91" style="edgeStyle=none;rounded=0;orthogonalLoop=1;jettySize=auto;html=1;exitX=0.5;exitY=1;exitDx=0;exitDy=0;entryX=0.5;entryY=0;entryDx=0;entryDy=0;dashed=1;endArrow=none;endFill=0;" parent="1" source="0ZQwHmmF4wAy4fdGetRu-4" target="0ZQwHmmF4wAy4fdGetRu-23" edge="1">
          <mxGeometry relative="1" as="geometry">
            <mxPoint x="330" y="110" as="sourcePoint" />
            <mxPoint x="330" y="150" as="targetPoint" />
          </mxGeometry>
        </mxCell>
        <mxCell id="0ZQwHmmF4wAy4fdGetRu-89" style="edgeStyle=none;rounded=0;orthogonalLoop=1;jettySize=auto;html=1;exitX=0.5;exitY=0;exitDx=0;exitDy=0;entryX=0.5;entryY=1;entryDx=0;entryDy=0;dashed=1;endArrow=none;endFill=0;" parent="1" target="0ZQwHmmF4wAy4fdGetRu-20" edge="1">
          <mxGeometry relative="1" as="geometry">
            <mxPoint x="320" y="780" as="sourcePoint" />
            <mxPoint x="340" y="160" as="targetPoint" />
          </mxGeometry>
        </mxCell>
        <mxCell id="0ZQwHmmF4wAy4fdGetRu-4" value="map:Map" style="rounded=1;whiteSpace=wrap;html=1;" parent="1" vertex="1">
          <mxGeometry x="450" y="80" width="60" height="20" as="geometry" />
        </mxCell>
        <mxCell id="0ZQwHmmF4wAy4fdGetRu-11" style="edgeStyle=orthogonalEdgeStyle;rounded=0;orthogonalLoop=1;jettySize=auto;html=1;startArrow=classic;startFill=1;endArrow=none;endFill=0;exitX=0;exitY=0;exitDx=0;exitDy=0;" parent="1" source="0ZQwHmmF4wAy4fdGetRu-14" edge="1">
          <mxGeometry relative="1" as="geometry">
            <mxPoint x="120" y="140" as="targetPoint" />
            <mxPoint x="310" y="139.5" as="sourcePoint" />
            <Array as="points">
              <mxPoint x="250" y="140" />
            </Array>
          </mxGeometry>
        </mxCell>
        <mxCell id="0ZQwHmmF4wAy4fdGetRu-12" value="getAction()" style="edgeLabel;html=1;align=center;verticalAlign=middle;resizable=0;points=[];" parent="0ZQwHmmF4wAy4fdGetRu-11" vertex="1" connectable="0">
          <mxGeometry x="0.8589" relative="1" as="geometry">
            <mxPoint x="22" y="-10" as="offset" />
          </mxGeometry>
        </mxCell>
        <mxCell id="0ZQwHmmF4wAy4fdGetRu-16" style="rounded=0;orthogonalLoop=1;jettySize=auto;html=1;exitX=1;exitY=1;exitDx=0;exitDy=0;entryX=0;entryY=0;entryDx=0;entryDy=0;" parent="1" source="0ZQwHmmF4wAy4fdGetRu-14" target="0ZQwHmmF4wAy4fdGetRu-19" edge="1">
          <mxGeometry relative="1" as="geometry">
            <mxPoint x="430" y="180" as="targetPoint" />
          </mxGeometry>
        </mxCell>
        <mxCell id="0ZQwHmmF4wAy4fdGetRu-18" value="getLocation(actor)" style="edgeLabel;html=1;align=center;verticalAlign=middle;resizable=0;points=[];" parent="0ZQwHmmF4wAy4fdGetRu-16" vertex="1" connectable="0">
          <mxGeometry x="-0.56" relative="1" as="geometry">
            <mxPoint x="28" y="-10" as="offset" />
          </mxGeometry>
        </mxCell>
        <mxCell id="0ZQwHmmF4wAy4fdGetRu-14" value="" style="rounded=0;whiteSpace=wrap;html=1;" parent="1" vertex="1">
          <mxGeometry x="310" y="140" width="20" height="40" as="geometry" />
        </mxCell>
        <mxCell id="0ZQwHmmF4wAy4fdGetRu-87" style="edgeStyle=none;rounded=0;orthogonalLoop=1;jettySize=auto;html=1;exitX=0.5;exitY=1;exitDx=0;exitDy=0;entryX=0.5;entryY=0;entryDx=0;entryDy=0;dashed=1;endArrow=none;endFill=0;" parent="1" source="0ZQwHmmF4wAy4fdGetRu-17" target="0ZQwHmmF4wAy4fdGetRu-14" edge="1">
          <mxGeometry relative="1" as="geometry" />
        </mxCell>
        <mxCell id="0ZQwHmmF4wAy4fdGetRu-17" value=":FollowBehaviour" style="rounded=1;whiteSpace=wrap;html=1;" parent="1" vertex="1">
          <mxGeometry x="270" y="80" width="100" height="20" as="geometry" />
        </mxCell>
        <mxCell id="0ZQwHmmF4wAy4fdGetRu-21" style="rounded=0;orthogonalLoop=1;jettySize=auto;html=1;exitX=0;exitY=1;exitDx=0;exitDy=0;entryX=1;entryY=0;entryDx=0;entryDy=0;endArrow=open;endFill=0;dashed=1;" parent="1" source="0ZQwHmmF4wAy4fdGetRu-19" target="0ZQwHmmF4wAy4fdGetRu-20" edge="1">
          <mxGeometry relative="1" as="geometry" />
        </mxCell>
        <mxCell id="0ZQwHmmF4wAy4fdGetRu-22" value="here: Location" style="edgeLabel;html=1;align=center;verticalAlign=middle;resizable=0;points=[];" parent="0ZQwHmmF4wAy4fdGetRu-21" vertex="1" connectable="0">
          <mxGeometry x="0.5835" y="-3" relative="1" as="geometry">
            <mxPoint x="21" y="-7" as="offset" />
          </mxGeometry>
        </mxCell>
        <mxCell id="0ZQwHmmF4wAy4fdGetRu-19" value="" style="rounded=0;whiteSpace=wrap;html=1;" parent="1" vertex="1">
          <mxGeometry x="470" y="180" width="20" height="40" as="geometry" />
        </mxCell>
        <mxCell id="0ZQwHmmF4wAy4fdGetRu-24" style="edgeStyle=none;rounded=0;orthogonalLoop=1;jettySize=auto;html=1;exitX=1;exitY=1;exitDx=0;exitDy=0;entryX=0;entryY=0;entryDx=0;entryDy=0;" parent="1" source="0ZQwHmmF4wAy4fdGetRu-20" target="0ZQwHmmF4wAy4fdGetRu-23" edge="1">
          <mxGeometry relative="1" as="geometry" />
        </mxCell>
        <mxCell id="0ZQwHmmF4wAy4fdGetRu-25" value="getLocation(target)" style="edgeLabel;html=1;align=center;verticalAlign=middle;resizable=0;points=[];" parent="0ZQwHmmF4wAy4fdGetRu-24" vertex="1" connectable="0">
          <mxGeometry x="-0.6874" relative="1" as="geometry">
            <mxPoint x="38" y="-10" as="offset" />
          </mxGeometry>
        </mxCell>
        <mxCell id="0ZQwHmmF4wAy4fdGetRu-20" value="" style="rounded=0;whiteSpace=wrap;html=1;" parent="1" vertex="1">
          <mxGeometry x="310" y="220" width="20" height="40" as="geometry" />
        </mxCell>
        <mxCell id="0ZQwHmmF4wAy4fdGetRu-27" style="edgeStyle=none;rounded=0;orthogonalLoop=1;jettySize=auto;html=1;exitX=0;exitY=1;exitDx=0;exitDy=0;entryX=1;entryY=0;entryDx=0;entryDy=0;dashed=1;endArrow=open;endFill=0;" parent="1" source="0ZQwHmmF4wAy4fdGetRu-23" target="0ZQwHmmF4wAy4fdGetRu-26" edge="1">
          <mxGeometry relative="1" as="geometry" />
        </mxCell>
        <mxCell id="0ZQwHmmF4wAy4fdGetRu-28" value="there: Location" style="edgeLabel;html=1;align=center;verticalAlign=middle;resizable=0;points=[];" parent="0ZQwHmmF4wAy4fdGetRu-27" vertex="1" connectable="0">
          <mxGeometry x="0.4364" y="1" relative="1" as="geometry">
            <mxPoint x="11" y="-11" as="offset" />
          </mxGeometry>
        </mxCell>
        <mxCell id="0ZQwHmmF4wAy4fdGetRu-23" value="" style="rounded=0;whiteSpace=wrap;html=1;" parent="1" vertex="1">
          <mxGeometry x="470" y="260" width="20" height="40" as="geometry" />
        </mxCell>
        <mxCell id="0ZQwHmmF4wAy4fdGetRu-42" style="edgeStyle=none;rounded=0;orthogonalLoop=1;jettySize=auto;html=1;exitX=1;exitY=1;exitDx=0;exitDy=0;entryX=0;entryY=0;entryDx=0;entryDy=0;" parent="1" source="0ZQwHmmF4wAy4fdGetRu-26" target="0ZQwHmmF4wAy4fdGetRu-41" edge="1">
          <mxGeometry relative="1" as="geometry">
            <mxPoint x="330" y="450" as="sourcePoint" />
          </mxGeometry>
        </mxCell>
        <mxCell id="0ZQwHmmF4wAy4fdGetRu-43" value="getExits()" style="edgeLabel;html=1;align=center;verticalAlign=middle;resizable=0;points=[];" parent="0ZQwHmmF4wAy4fdGetRu-42" vertex="1" connectable="0">
          <mxGeometry x="-0.0805" y="-3" relative="1" as="geometry">
            <mxPoint x="-108" y="-13" as="offset" />
          </mxGeometry>
        </mxCell>
        <mxCell id="0ZQwHmmF4wAy4fdGetRu-26" value="" style="rounded=0;whiteSpace=wrap;html=1;" parent="1" vertex="1">
          <mxGeometry x="310" y="300" width="20" height="120" as="geometry" />
        </mxCell>
        <mxCell id="0ZQwHmmF4wAy4fdGetRu-32" style="edgeStyle=orthogonalEdgeStyle;rounded=0;orthogonalLoop=1;jettySize=auto;html=1;entryX=1.003;entryY=0.673;entryDx=0;entryDy=0;entryPerimeter=0;exitX=0.997;exitY=0.326;exitDx=0;exitDy=0;exitPerimeter=0;" parent="1" source="0ZQwHmmF4wAy4fdGetRu-26" target="0ZQwHmmF4wAy4fdGetRu-26" edge="1">
          <mxGeometry relative="1" as="geometry">
            <mxPoint x="350" y="340" as="sourcePoint" />
            <mxPoint x="340" y="380" as="targetPoint" />
            <Array as="points">
              <mxPoint x="450" y="339" />
              <mxPoint x="450" y="381" />
            </Array>
          </mxGeometry>
        </mxCell>
        <mxCell id="0ZQwHmmF4wAy4fdGetRu-33" value="distance(here, there)" style="edgeLabel;html=1;align=center;verticalAlign=middle;resizable=0;points=[];" parent="0ZQwHmmF4wAy4fdGetRu-32" vertex="1" connectable="0">
          <mxGeometry x="-0.8444" y="3" relative="1" as="geometry">
            <mxPoint x="38" y="-7" as="offset" />
          </mxGeometry>
        </mxCell>
        <mxCell id="0ZQwHmmF4wAy4fdGetRu-55" value="int:currentDistance" style="edgeLabel;html=1;align=center;verticalAlign=middle;resizable=0;points=[];" parent="0ZQwHmmF4wAy4fdGetRu-32" vertex="1" connectable="0">
          <mxGeometry x="0.8145" y="-1" relative="1" as="geometry">
            <mxPoint x="33" y="-10" as="offset" />
          </mxGeometry>
        </mxCell>
        <mxCell id="0ZQwHmmF4wAy4fdGetRu-36" value="loop" style="shape=umlFrame;whiteSpace=wrap;html=1;pointerEvents=0;recursiveResize=0;container=1;collapsible=0;width=45;height=20;" parent="1" vertex="1">
          <mxGeometry x="240" y="450" width="827.5" height="380" as="geometry" />
        </mxCell>
        <mxCell id="0ZQwHmmF4wAy4fdGetRu-37" value="[for each exit]" style="text;html=1;" parent="0ZQwHmmF4wAy4fdGetRu-36" vertex="1">
          <mxGeometry width="100" height="20" relative="1" as="geometry">
            <mxPoint x="190" as="offset" />
          </mxGeometry>
        </mxCell>
        <mxCell id="0ZQwHmmF4wAy4fdGetRu-45" value="" style="rounded=0;whiteSpace=wrap;html=1;" parent="0ZQwHmmF4wAy4fdGetRu-36" vertex="1">
          <mxGeometry x="550" y="80" width="20" height="40" as="geometry" />
        </mxCell>
        <mxCell id="0ZQwHmmF4wAy4fdGetRu-95" value="opt" style="shape=umlFrame;whiteSpace=wrap;html=1;pointerEvents=0;recursiveResize=0;container=1;collapsible=0;width=40;height=15;" parent="0ZQwHmmF4wAy4fdGetRu-36" vertex="1">
          <mxGeometry x="12.5" y="140" width="815" height="230" as="geometry" />
        </mxCell>
        <mxCell id="0ZQwHmmF4wAy4fdGetRu-96" value="[canActorEnter(actor)]" style="text;html=1;" parent="0ZQwHmmF4wAy4fdGetRu-95" vertex="1">
          <mxGeometry width="100" height="20" relative="1" as="geometry">
            <mxPoint x="88" as="offset" />
          </mxGeometry>
        </mxCell>
        <mxCell id="0ZQwHmmF4wAy4fdGetRu-77" value="opt" style="shape=umlFrame;whiteSpace=wrap;html=1;pointerEvents=0;recursiveResize=0;container=1;collapsible=0;width=40;height=15;" parent="0ZQwHmmF4wAy4fdGetRu-95" vertex="1">
          <mxGeometry x="17.5" y="110" width="790" height="110" as="geometry" />
        </mxCell>
        <mxCell id="0ZQwHmmF4wAy4fdGetRu-78" value="[newDistance &amp;gt; currentDistance]" style="text;html=1;" parent="0ZQwHmmF4wAy4fdGetRu-77" vertex="1">
          <mxGeometry width="100" height="20" relative="1" as="geometry">
            <mxPoint x="70" as="offset" />
          </mxGeometry>
        </mxCell>
        <mxCell id="0ZQwHmmF4wAy4fdGetRu-63" value=":MoveAction" style="rounded=1;whiteSpace=wrap;html=1;" parent="0ZQwHmmF4wAy4fdGetRu-77" vertex="1">
          <mxGeometry x="615" y="40" width="70" height="20" as="geometry" />
        </mxCell>
        <mxCell id="0ZQwHmmF4wAy4fdGetRu-71" value="" style="rounded=0;whiteSpace=wrap;html=1;" parent="0ZQwHmmF4wAy4fdGetRu-77" vertex="1">
          <mxGeometry x="640" y="60" width="20" height="40" as="geometry" />
        </mxCell>
        <mxCell id="0ZQwHmmF4wAy4fdGetRu-57" style="edgeStyle=orthogonalEdgeStyle;rounded=0;orthogonalLoop=1;jettySize=auto;html=1;exitX=1;exitY=0.25;exitDx=0;exitDy=0;entryX=1.002;entryY=0.66;entryDx=0;entryDy=0;entryPerimeter=0;" parent="0ZQwHmmF4wAy4fdGetRu-95" edge="1">
          <mxGeometry relative="1" as="geometry">
            <mxPoint x="77.54000000000008" y="95.59999999999991" as="targetPoint" />
            <mxPoint x="77.5" y="30" as="sourcePoint" />
            <Array as="points">
              <mxPoint x="77.5" y="40" />
              <mxPoint x="237.5" y="40" />
              <mxPoint x="237.5" y="96" />
            </Array>
          </mxGeometry>
        </mxCell>
        <mxCell id="0ZQwHmmF4wAy4fdGetRu-58" value="distance(destination, there)" style="edgeLabel;html=1;align=center;verticalAlign=middle;resizable=0;points=[];" parent="0ZQwHmmF4wAy4fdGetRu-57" vertex="1" connectable="0">
          <mxGeometry x="-0.7811" y="2" relative="1" as="geometry">
            <mxPoint x="52" y="-7" as="offset" />
          </mxGeometry>
        </mxCell>
        <mxCell id="0ZQwHmmF4wAy4fdGetRu-59" value="int: newDistance" style="edgeLabel;html=1;align=center;verticalAlign=middle;resizable=0;points=[];" parent="0ZQwHmmF4wAy4fdGetRu-57" vertex="1" connectable="0">
          <mxGeometry x="0.8549" y="-4" relative="1" as="geometry">
            <mxPoint x="22" y="-5" as="offset" />
          </mxGeometry>
        </mxCell>
        <mxCell id="0ZQwHmmF4wAy4fdGetRu-84" style="edgeStyle=none;rounded=0;orthogonalLoop=1;jettySize=auto;html=1;exitX=0;exitY=1;exitDx=0;exitDy=0;dashed=1;" parent="0ZQwHmmF4wAy4fdGetRu-95" edge="1">
          <mxGeometry relative="1" as="geometry">
            <mxPoint x="-132.5" y="250" as="targetPoint" />
            <mxPoint x="57.5" y="250" as="sourcePoint" />
          </mxGeometry>
        </mxCell>
        <mxCell id="0ZQwHmmF4wAy4fdGetRu-85" value="null" style="edgeLabel;html=1;align=center;verticalAlign=middle;resizable=0;points=[];" parent="0ZQwHmmF4wAy4fdGetRu-84" vertex="1" connectable="0">
          <mxGeometry x="0.5569" y="-1" relative="1" as="geometry">
            <mxPoint x="-9" y="-9" as="offset" />
          </mxGeometry>
        </mxCell>
        <mxCell id="0ZQwHmmF4wAy4fdGetRu-46" style="edgeStyle=none;rounded=0;orthogonalLoop=1;jettySize=auto;html=1;exitX=1;exitY=1;exitDx=0;exitDy=0;entryX=0;entryY=0;entryDx=0;entryDy=0;" parent="0ZQwHmmF4wAy4fdGetRu-36" target="0ZQwHmmF4wAy4fdGetRu-45" edge="1">
          <mxGeometry relative="1" as="geometry">
            <mxPoint x="90" y="80" as="sourcePoint" />
          </mxGeometry>
        </mxCell>
        <mxCell id="0ZQwHmmF4wAy4fdGetRu-47" value="getDestination()" style="edgeLabel;html=1;align=center;verticalAlign=middle;resizable=0;points=[];" parent="0ZQwHmmF4wAy4fdGetRu-46" vertex="1" connectable="0">
          <mxGeometry x="-0.5206" y="-1" relative="1" as="geometry">
            <mxPoint x="-60" y="-11" as="offset" />
          </mxGeometry>
        </mxCell>
        <mxCell id="39OSdsziyaQNDdM-dmGX-2" style="rounded=0;orthogonalLoop=1;jettySize=auto;html=1;exitX=0;exitY=1;exitDx=0;exitDy=0;entryX=1;entryY=0;entryDx=0;entryDy=0;" edge="1" parent="0ZQwHmmF4wAy4fdGetRu-36">
          <mxGeometry relative="1" as="geometry">
            <mxPoint x="390" y="40.000000000000114" as="sourcePoint" />
            <mxPoint x="90" y="40" as="targetPoint" />
          </mxGeometry>
        </mxCell>
        <mxCell id="39OSdsziyaQNDdM-dmGX-3" value="Exit: exit" style="edgeLabel;html=1;align=center;verticalAlign=middle;resizable=0;points=[];" vertex="1" connectable="0" parent="39OSdsziyaQNDdM-dmGX-2">
          <mxGeometry x="0.5813" y="-4" relative="1" as="geometry">
            <mxPoint x="-33" y="-6" as="offset" />
          </mxGeometry>
        </mxCell>
        <mxCell id="0ZQwHmmF4wAy4fdGetRu-54" style="edgeStyle=none;rounded=0;orthogonalLoop=1;jettySize=auto;html=1;exitX=0;exitY=1;exitDx=0;exitDy=0;entryX=1;entryY=0;entryDx=0;entryDy=0;dashed=1;endArrow=open;endFill=0;" parent="0ZQwHmmF4wAy4fdGetRu-36" edge="1">
          <mxGeometry relative="1" as="geometry">
            <mxPoint x="550" y="120" as="sourcePoint" />
            <mxPoint x="90" y="120" as="targetPoint" />
          </mxGeometry>
        </mxCell>
        <mxCell id="0ZQwHmmF4wAy4fdGetRu-56" value="Location: destination" style="edgeLabel;html=1;align=center;verticalAlign=middle;resizable=0;points=[];" parent="0ZQwHmmF4wAy4fdGetRu-54" vertex="1" connectable="0">
          <mxGeometry x="-0.6911" y="-3" relative="1" as="geometry">
            <mxPoint x="-329" y="-7" as="offset" />
          </mxGeometry>
        </mxCell>
        <mxCell id="0ZQwHmmF4wAy4fdGetRu-67" style="edgeStyle=none;rounded=0;orthogonalLoop=1;jettySize=auto;html=1;exitX=1;exitY=1;exitDx=0;exitDy=0;entryX=0;entryY=0.5;entryDx=0;entryDy=0;" parent="0ZQwHmmF4wAy4fdGetRu-36" target="0ZQwHmmF4wAy4fdGetRu-63" edge="1">
          <mxGeometry relative="1" as="geometry">
            <mxPoint x="980" y="240" as="targetPoint" />
            <mxPoint x="90" y="300" as="sourcePoint" />
          </mxGeometry>
        </mxCell>
        <mxCell id="0ZQwHmmF4wAy4fdGetRu-69" value="&amp;lt;&amp;lt;creates&amp;gt;&amp;gt;" style="edgeLabel;html=1;align=center;verticalAlign=middle;resizable=0;points=[];" parent="0ZQwHmmF4wAy4fdGetRu-67" vertex="1" connectable="0">
          <mxGeometry x="-0.8644" y="1" relative="1" as="geometry">
            <mxPoint x="3" y="-9" as="offset" />
          </mxGeometry>
        </mxCell>
        <mxCell id="39OSdsziyaQNDdM-dmGX-5" value="" style="rounded=0;whiteSpace=wrap;html=1;" vertex="1" parent="0ZQwHmmF4wAy4fdGetRu-36">
          <mxGeometry x="70" y="40" width="20" height="350" as="geometry" />
        </mxCell>
        <mxCell id="0ZQwHmmF4wAy4fdGetRu-39" value="exit:Exit" style="rounded=1;whiteSpace=wrap;html=1;" parent="1" vertex="1">
          <mxGeometry x="610" y="80" width="60" height="20" as="geometry" />
        </mxCell>
        <mxCell id="0ZQwHmmF4wAy4fdGetRu-41" value="" style="rounded=0;whiteSpace=wrap;html=1;" parent="1" vertex="1">
          <mxGeometry x="630" y="420" width="20" height="70" as="geometry" />
        </mxCell>
        <mxCell id="0ZQwHmmF4wAy4fdGetRu-49" value="destination:Location" style="rounded=1;whiteSpace=wrap;html=1;" parent="1" vertex="1">
          <mxGeometry x="740" y="80" width="120" height="20" as="geometry" />
        </mxCell>
        <mxCell id="0ZQwHmmF4wAy4fdGetRu-75" style="edgeStyle=none;rounded=0;orthogonalLoop=1;jettySize=auto;html=1;exitX=0;exitY=1;exitDx=0;exitDy=0;dashed=1;endArrow=open;endFill=0;" parent="1" source="0ZQwHmmF4wAy4fdGetRu-71" edge="1">
          <mxGeometry relative="1" as="geometry">
            <mxPoint x="120" y="800" as="targetPoint" />
          </mxGeometry>
        </mxCell>
        <mxCell id="0ZQwHmmF4wAy4fdGetRu-76" value="moveAction" style="edgeLabel;html=1;align=center;verticalAlign=middle;resizable=0;points=[];" parent="0ZQwHmmF4wAy4fdGetRu-75" vertex="1" connectable="0">
          <mxGeometry x="0.9658" y="-1" relative="1" as="geometry">
            <mxPoint x="36" y="-9" as="offset" />
          </mxGeometry>
        </mxCell>
        <mxCell id="0ZQwHmmF4wAy4fdGetRu-88" style="edgeStyle=none;rounded=0;orthogonalLoop=1;jettySize=auto;html=1;exitX=0.5;exitY=1;exitDx=0;exitDy=0;entryX=0.5;entryY=0;entryDx=0;entryDy=0;dashed=1;endArrow=none;endFill=0;" parent="1" source="0ZQwHmmF4wAy4fdGetRu-14" target="0ZQwHmmF4wAy4fdGetRu-20" edge="1">
          <mxGeometry relative="1" as="geometry">
            <mxPoint x="330" y="110" as="sourcePoint" />
            <mxPoint x="330" y="150" as="targetPoint" />
          </mxGeometry>
        </mxCell>
        <mxCell id="0ZQwHmmF4wAy4fdGetRu-92" style="edgeStyle=none;rounded=0;orthogonalLoop=1;jettySize=auto;html=1;exitX=0.5;exitY=1;exitDx=0;exitDy=0;dashed=1;endArrow=none;endFill=0;entryX=0.5;entryY=0;entryDx=0;entryDy=0;" parent="1" source="0ZQwHmmF4wAy4fdGetRu-39" target="0ZQwHmmF4wAy4fdGetRu-41" edge="1">
          <mxGeometry relative="1" as="geometry">
            <mxPoint x="490" y="110" as="sourcePoint" />
            <mxPoint x="640" y="410" as="targetPoint" />
          </mxGeometry>
        </mxCell>
        <mxCell id="0ZQwHmmF4wAy4fdGetRu-93" style="edgeStyle=none;rounded=0;orthogonalLoop=1;jettySize=auto;html=1;exitX=0.5;exitY=1;exitDx=0;exitDy=0;dashed=1;endArrow=none;endFill=0;entryX=0.5;entryY=0;entryDx=0;entryDy=0;" parent="1" source="0ZQwHmmF4wAy4fdGetRu-49" target="0ZQwHmmF4wAy4fdGetRu-45" edge="1">
          <mxGeometry relative="1" as="geometry">
            <mxPoint x="650" y="110" as="sourcePoint" />
            <mxPoint x="650" y="430" as="targetPoint" />
          </mxGeometry>
        </mxCell>
      </root>
    </mxGraphModel>
  </diagram>
</mxfile>
